<svg xmlns="http://www.w3.org/2000/svg" version="1.1" xmlns:xlink="http://www.w3.org/1999/xlink" xmlns:svgjs="http://svgjs.dev/svgjs" width="1250" height="450" preserveAspectRatio="none" viewBox="0 0 1250 450"><g mask="url(&quot;#SvgjsMask1016&quot;)" fill="none"><rect width="1250" height="450" x="0" y="0" fill="rgba(136, 194, 255, 1)"></rect><path d="M0,319.202C63.241,321.358,126.902,314.138,182.677,284.251C241.268,252.855,288.742,204.654,321.602,146.871C356.544,85.426,387.097,15.725,374.98,-53.914C362.968,-122.95,310.45,-177.299,257.261,-222.918C209.252,-264.095,147.05,-277.105,88.083,-299.982C22.953,-325.251,-37.563,-372.378,-106.945,-364.22C-180.223,-355.604,-256.683,-318.489,-294.311,-255.022C-331.141,-192.9,-292.858,-114.845,-297.519,-42.777C-301.7,21.867,-343.782,85.9,-320.264,146.259C-296.513,207.215,-232.407,240.979,-174.844,272.063C-120.633,301.337,-61.574,317.103,0,319.202" fill="#3a9aff"></path><path d="M1250 708.424C1304.536 710.461 1360.144 721.0609999999999 1410.1399999999999 699.182 1464.4279999999999 675.4259999999999 1511.894 634.679 1538.971 581.969 1566.655 528.076 1577.035 463.729 1561.121 405.26800000000003 1545.924 349.44100000000003 1491.427 317.33000000000004 1454.753 272.58000000000004 1416.783 226.249 1395.91 163.137 1341.737 137.572 1284.743 110.67500000000001 1217.809 116.90899999999999 1156.589 131.872 1093.402 147.31599999999997 1036.415 179.322 988.952 223.801 937.6410000000001 271.88599999999997 884.434 326.396 874.697 396.04 864.97 465.611 894.7180000000001 536.954 937.365 592.775 975.77 643.044 1038.036 665.5509999999999 1097.368 687.499 1146.527 705.684 1197.622 706.4680000000001 1250 708.424" fill="#d6eaff"></path></g><defs><mask id="SvgjsMask1016"><rect width="1250" height="450" fill="#ffffff"></rect></mask></defs></svg>